<?xml version="1.0" standalone="no"?>
<!DOCTYPE svg PUBLIC "-//W3C//DTD SVG 1.1//EN"
  "http://www.w3.org/Graphics/SVG/1.1/DTD/svg11.dtd">
<svg width="192mm" height="161.99999999999997mm" viewBox="-101 -279.99999999999994 192 161.99999999999997" xmlns="http://www.w3.org/2000/svg" version="1.1">
	<title>svgOutput</title>
	<desc>made with tinkercad</desc>
<path d="M -34.456703186035156 -278.99999999999994 L -31.270999908447266 -277.8977966308593 L 14.683682441711426 -261.9979858398437 L 48.875587463378906 -250.16799926757807 L 49.625328063964844 -249.90859985351557 L 84.00299835205078 -238.01432800292963 L 90 -235.93943786621088 L 90 -229.5110473632812 L 90 -168.4900970458984 L 90 -164.49800109863278 L 90 -162.06153869628903 L 49.623714447021484 -148.09150695800778 L 33.48622512817383 -142.50799560546872 L 1.2026233673095703 -131.3379974365234 L -34.45674133300781 -118.99999999999997 L -35.12799835205078 -118.99999999999997 L -36.26830291748047 -118.99999999999997 L -87.01300048828125 -118.99999999999997 L -100 -118.99999999999997 L -100 -247.5196685791015 L -100 -278.99999999999994 L -87.01300048828125 -278.99999999999994 L -83.15499877929688 -278.99999999999994 L -36.26830291748047 -278.99999999999994 L -35.12799835205078 -278.99999999999994 L -34.456703186035156 -278.99999999999994 M -50.034000396728516 -211.39599609374994 L -50.12799835205078 -210.83000183105463 L -50.034000396728516 -210.26400756835932 L -49.7599983215332 -209.75300598144526 L -49.33300018310547 -209.34700012207026 L -49.152000427246094 -209.25936889648432 L -48.79600143432617 -209.08700561523432 L -48.20000076293945 -208.99800109863276 L -47.604000091552734 -209.08700561523432 L -47.066001892089844 -209.34700012207026 L -46.638999938964844 -209.75300598144526 L -46.3650016784668 -210.26400756835932 L -46.270999908447266 -210.83000183105463 L -46.3650016784668 -211.39599609374994 L -46.638999938964844 -211.906997680664 L -47.066001892089844 -212.31199645996088 L -47.604000091552734 -212.57299804687494 L -48.20000076293945 -212.6620025634765 L -48.79600143432617 -212.57299804687494 L -49.152000427246094 -212.39997863769526 L -49.33300018310547 -212.31199645996088 L -49.7599983215332 -211.906997680664 L -50.034000396728516 -211.39599609374994 M -35.034000396728516 -264.39599609374994 L -35.12799835205078 -263.82998657226557 L -35.034000396728516 -263.2640075683593 L -34.7599983215332 -262.7529907226562 L -34.33300018310547 -262.3469848632812 L -33.79600143432617 -262.0870056152343 L -33.20000076293945 -261.9979858398437 L -32.768001556396484 -262.06249999999994 L -32.604000091552734 -262.0870056152343 L -32.066001892089844 -262.3469848632812 L -31.638999938964844 -262.7529907226562 L -31.364999771118164 -263.2640075683593 L -31.270999908447266 -263.82998657226557 L -31.364999771118164 -264.39599609374994 L -31.638999938964844 -264.90701293945307 L -32.066001892089844 -265.31201171874994 L -32.604000091552734 -265.57299804687494 L -32.768001556396484 -265.5975036621093 L -33.20000076293945 -265.66198730468744 L -33.79600143432617 -265.57299804687494 L -34.33300018310547 -265.31201171874994 L -34.7599983215332 -264.90701293945307 L -35.034000396728516 -264.39599609374994 M -35.034000396728516 -241.39599609374994 L -35.12799835205078 -240.83000183105463 L -35.034000396728516 -240.26400756835932 L -34.7599983215332 -239.75300598144526 L -34.33300018310547 -239.34700012207026 L -33.79600143432617 -239.08700561523432 L -33.20000076293945 -238.99800109863276 L -32.768001556396484 -239.062515258789 L -32.604000091552734 -239.08700561523432 L -32.066001892089844 -239.34700012207026 L -31.638999938964844 -239.75300598144526 L -31.364999771118164 -240.26400756835932 L -31.270999908447266 -240.83000183105463 L -31.364999771118164 -241.39599609374994 L -31.638999938964844 -241.906997680664 L -32.066001892089844 -242.31199645996088 L -32.604000091552734 -242.57299804687494 L -32.768001556396484 -242.59748840332026 L -33.20000076293945 -242.6620025634765 L -33.79600143432617 -242.57299804687494 L -34.33300018310547 -242.31199645996088 L -34.7599983215332 -241.906997680664 L -35.034000396728516 -241.39599609374994 M -20.760000228881836 -252.56599426269526 L -20.854999542236328 -251.99999999999994 L -20.760000228881836 -251.43400573730463 L -20.48699951171875 -250.92300415039057 L -20.479999542236328 -250.91636657714838 L -20.059999465942383 -250.5180053710937 L -19.52199935913086 -250.25700378417963 L -18.926000595092773 -250.16799926757807 L -18.329999923706055 -250.25700378417963 L -17.792999267578125 -250.5180053710937 L -17.365999221801758 -250.92300415039057 L -17.091999053955078 -251.43400573730463 L -17.01394271850586 -251.90400695800776 L -16.99799919128418 -251.99999999999994 L -17.091999053955078 -252.56599426269526 L -17.365999221801758 -253.07699584960932 L -17.792999267578125 -253.4819946289062 L -18.329999923706055 -253.74299621582026 L -18.926000595092773 -253.83200073242182 L -19.52199935913086 -253.74299621582026 L -20.059999465942383 -253.4819946289062 L -20.479999542236328 -253.0836334228515 L -20.48699951171875 -253.07699584960932 L -20.760000228881836 -252.56599426269526 M 16.478490829467773 -208.99800109863276 L 15.65999984741211 -205.73100280761713 L 15.163999557495117 -202.38200378417963 L 14.998000144958496 -198.99999999999994 L 15.087921142578125 -197.16799926757807 L 15.11540699005127 -196.60800170898432 L 15.163999557495117 -195.61799621582026 L 15.65999984741211 -192.26899719238276 L 16.482999801635742 -188.9839935302734 L 17.55170249938965 -185.99800109863278 L 17.624000549316406 -185.7960052490234 L 19.07200050354004 -182.7359924316406 L 20.812000274658203 -179.83099365234372 L 22.82900047302246 -177.11199951171872 L 25.10300064086914 -174.60299682617185 L 27.61199951171875 -172.32899475097653 L 30.33099937438965 -170.3119964599609 L 32.768001556396484 -168.85231018066403 L 33.236000061035156 -168.5720062255859 L 36.29600143432617 -167.12399291992185 L 39.48400115966797 -165.98300170898435 L 42.76900100708008 -165.16000366210935 L 46.11800003051758 -164.66400146484372 L 49.5 -164.49800109863278 L 52.88199996948242 -164.66400146484372 L 56.23099899291992 -165.16000366210935 L 58.35150146484375 -165.69125366210935 L 59.51599884033203 -165.98300170898435 L 62.70399856567383 -167.12399291992185 L 65.53600311279297 -168.46411132812497 L 65.76399993896484 -168.5720062255859 L 68.66899871826172 -170.3119964599609 L 71.38800048828125 -172.32899475097653 L 73.89700317382812 -174.60299682617185 L 76.1709976196289 -177.11199951171872 L 78.18800354003906 -179.83099365234372 L 79.9280014038086 -182.7359924316406 L 81.3759994506836 -185.7960052490234 L 81.3936767578125 -185.84538269042966 L 82.51699829101562 -188.9839935302734 L 83.33999633789062 -192.26899719238276 L 83.83599853515625 -195.61799621582026 L 83.8848876953125 -196.60800170898432 L 84.00299835205078 -198.99999999999994 L 83.83599853515625 -202.38200378417963 L 83.33999633789062 -205.73100280761713 L 82.51699829101562 -209.0160064697265 L 81.39334106445312 -212.15554809570307 L 81.3759994506836 -212.2039947509765 L 79.9280014038086 -215.26400756835932 L 78.18800354003906 -218.1690063476562 L 76.1709976196289 -220.8880004882812 L 73.89700317382812 -223.39700317382807 L 71.38800048828125 -225.67100524902338 L 68.66899871826172 -227.688003540039 L 65.76399993896484 -229.427993774414 L 65.53600311279297 -229.53588867187494 L 62.70399856567383 -230.87600708007807 L 59.51599884033203 -232.01699829101557 L 58.35313415527344 -232.30833435058588 L 56.23099899291992 -232.83999633789057 L 52.88199996948242 -233.3359985351562 L 49.5 -233.50300598144526 L 46.11800003051758 -233.3359985351562 L 42.76900100708008 -232.83999633789057 L 39.48400115966797 -232.01699829101557 L 36.29600143432617 -230.87600708007807 L 33.236000061035156 -229.427993774414 L 32.768001556396484 -229.14768981933588 L 30.33099937438965 -227.688003540039 L 27.61199951171875 -225.67100524902338 L 25.10300064086914 -223.39700317382807 L 22.82900047302246 -220.8880004882812 L 20.812000274658203 -218.1690063476562 L 19.07200050354004 -215.26400756835932 L 17.624000549316406 -212.2039947509765 L 16.482999801635742 -209.0160064697265 L 16.478490829467773 -208.99800109863276 M -50.034000396728516 -188.39599609374997 L -50.12799835205078 -187.83000183105466 L -50.034000396728516 -187.26400756835935 L -49.7599983215332 -186.75300598144528 L -49.33300018310547 -186.34700012207028 L -49.152000427246094 -186.25936889648435 L -48.79600143432617 -186.08700561523435 L -48.20000076293945 -185.99800109863278 L -47.604000091552734 -186.08700561523435 L -47.066001892089844 -186.34700012207028 L -46.638999938964844 -186.75300598144528 L -46.3650016784668 -187.26400756835935 L -46.270999908447266 -187.83000183105466 L -46.3650016784668 -188.39599609374997 L -46.638999938964844 -188.90699768066403 L -47.066001892089844 -189.3119964599609 L -47.604000091552734 -189.57299804687497 L -48.20000076293945 -189.66200256347653 L -48.79600143432617 -189.57299804687497 L -49.152000427246094 -189.39997863769528 L -49.33300018310547 -189.3119964599609 L -49.7599983215332 -188.90699768066403 L -50.034000396728516 -188.39599609374997 M -35.7599983215332 -199.56599426269526 L -35.85499954223633 -198.99999999999994 L -35.7599983215332 -198.43400573730463 L -35.48699951171875 -197.92300415039057 L -35.060001373291016 -197.5180053710937 L -34.52199935913086 -197.25700378417963 L -33.92599868774414 -197.16799926757807 L -33.33000183105469 -197.25700378417963 L -32.792999267578125 -197.5180053710937 L -32.768001556396484 -197.54171752929682 L -32.36600112915039 -197.92300415039057 L -32.09199905395508 -198.43400573730463 L -31.99799919128418 -198.99999999999994 L -32.09199905395508 -199.56599426269526 L -32.36600112915039 -200.07699584960932 L -32.768001556396484 -200.45828247070307 L -32.792999267578125 -200.4819946289062 L -33.249759674072266 -200.7039947509765 L -33.33000183105469 -200.74299621582026 L -33.92599868774414 -200.83200073242182 L -34.52199935913086 -200.74299621582026 L -34.60239028930664 -200.7039947509765 L -35.060001373291016 -200.4819946289062 L -35.48699951171875 -200.07699584960932 L -35.7599983215332 -199.56599426269526 M -35.034000396728516 -156.7359924316406 L -35.12799835205078 -156.16999816894528 L -35.034000396728516 -155.60400390624997 L -34.7599983215332 -155.0930023193359 L -34.33300018310547 -154.68800354003903 L -33.79600143432617 -154.42700195312497 L -33.20000076293945 -154.3379974365234 L -32.768001556396484 -154.40251159667966 L -32.604000091552734 -154.42700195312497 L -32.066001892089844 -154.68800354003903 L -31.638999938964844 -155.0930023193359 L -31.364999771118164 -155.60400390624997 L -31.270999908447266 -156.16999816894528 L -31.364999771118164 -156.7359924316406 L -31.638999938964844 -157.24699401855466 L -32.066001892089844 -157.65299987792966 L -32.604000091552734 -157.9129943847656 L -32.768001556396484 -157.93775939941403 L -33.20000076293945 -158.00300598144528 L -33.79600143432617 -157.9129943847656 L -34.33300018310547 -157.65299987792966 L -34.7599983215332 -157.24699401855466 L -35.034000396728516 -156.7359924316406 M -35.034000396728516 -133.7359924316406 L -35.12799835205078 -133.16999816894528 L -35.034000396728516 -132.60400390624997 L -34.7599983215332 -132.0930023193359 L -34.33300018310547 -131.68800354003903 L -33.79600143432617 -131.42700195312497 L -33.20000076293945 -131.3379974365234 L -32.768001556396484 -131.40251159667966 L -32.604000091552734 -131.42700195312497 L -32.066001892089844 -131.68800354003903 L -31.638999938964844 -132.0930023193359 L -31.364999771118164 -132.60400390624997 L -31.270999908447266 -133.16999816894528 L -31.364999771118164 -133.7359924316406 L -31.638999938964844 -134.24699401855466 L -32.066001892089844 -134.65299987792966 L -32.604000091552734 -134.9129943847656 L -32.768001556396484 -134.93775939941403 L -33.20000076293945 -135.00300598144528 L -33.79600143432617 -134.9129943847656 L -34.33300018310547 -134.65299987792966 L -34.7599983215332 -134.24699401855466 L -35.034000396728516 -133.7359924316406 M -20.760000228881836 -144.90600585937497 L -20.854999542236328 -144.3399963378906 L -20.760000228881836 -143.77400207519528 L -20.48699951171875 -143.26300048828122 L -20.479999542236328 -143.25636291503903 L -20.059999465942383 -142.85800170898435 L -19.52199935913086 -142.5980072021484 L -18.926000595092773 -142.50799560546872 L -18.329999923706055 -142.5980072021484 L -17.792999267578125 -142.85800170898435 L -17.365999221801758 -143.26300048828122 L -17.313987731933594 -143.36000061035153 L -17.091999053955078 -143.77400207519528 L -16.99799919128418 -144.3399963378906 L -17.091999053955078 -144.90600585937497 L -17.365999221801758 -145.41700744628903 L -17.792999267578125 -145.82299804687497 L -18.329999923706055 -146.0829925537109 L -18.926000595092773 -146.1730041503906 L -19.52199935913086 -146.0829925537109 L -20.059999465942383 -145.82299804687497 L -20.479999542236328 -145.42366027832028 L -20.48699951171875 -145.41700744628903 L -20.760000228881836 -144.90600585937497 M -72.6449966430664 -199.56599426269526 L -72.73899841308594 -198.99999999999994 L -72.6449966430664 -198.43400573730463 L -72.37100219726562 -197.92300415039057 L -71.94400024414062 -197.5180053710937 L -71.40699768066406 -197.25700378417963 L -70.81099700927734 -197.16799926757807 L -70.21499633789062 -197.25700378417963 L -69.677001953125 -197.5180053710937 L -69.63200378417969 -197.5606842041015 L -69.25 -197.92300415039057 L -68.97599792480469 -198.43400573730463 L -68.88200378417969 -198.99999999999994 L -68.97599792480469 -199.56599426269526 L -69.25 -200.07699584960932 L -69.63200378417969 -200.43931579589838 L -69.677001953125 -200.4819946289062 L -70.13460540771484 -200.7039947509765 L -70.21499633789062 -200.74299621582026 L -70.81099700927734 -200.83200073242182 L -71.40699768066406 -200.74299621582026 L -71.48724365234375 -200.7039947509765 L -71.94400024414062 -200.4819946289062 L -72.37100219726562 -200.07699584960932 L -72.6449966430664 -199.56599426269526 M -86.91799926757812 -268.73599243164057 L -87.01300048828125 -268.1700134277343 L -86.91799926757812 -267.60400390624994 L -86.64399719238281 -267.0929870605468 L -86.21800231933594 -266.68798828124994 L -86.01599884033203 -266.58999633789057 L -85.68000030517578 -266.42700195312494 L -85.08399963378906 -266.33801269531244 L -84.48799896240234 -266.42700195312494 L -83.94999694824219 -266.68798828124994 L -83.52400207519531 -267.0929870605468 L -83.25 -267.60400390624994 L -83.15499877929688 -268.1700134277343 L -83.25 -268.73599243164057 L -83.52400207519531 -269.2470092773437 L -83.94999694824219 -269.6530151367187 L -84.48799896240234 -269.91299438476557 L -85.08399963378906 -270.0029907226562 L -85.68000030517578 -269.91299438476557 L -86.01599884033203 -269.75061035156244 L -86.21800231933594 -269.6530151367187 L -86.64399719238281 -269.2470092773437 L -86.91799926757812 -268.73599243164057 M -86.91799926757812 -245.73599243164057 L -87.01300048828125 -245.16999816894526 L -86.91799926757812 -244.60400390624994 L -86.64399719238281 -244.09300231933588 L -86.21800231933594 -243.688003540039 L -86.01599884033203 -243.58999633789057 L -85.68000030517578 -243.42700195312494 L -85.08399963378906 -243.33799743652338 L -84.48799896240234 -243.42700195312494 L -83.94999694824219 -243.688003540039 L -83.52400207519531 -244.09300231933588 L -83.25 -244.60400390624994 L -83.15499877929688 -245.16999816894526 L -83.25 -245.73599243164057 L -83.52400207519531 -246.24699401855463 L -83.94999694824219 -246.65299987792963 L -84.48799896240234 -246.91299438476557 L -85.08399963378906 -247.00300598144526 L -85.68000030517578 -246.91299438476557 L -86.01599884033203 -246.7506256103515 L -86.21800231933594 -246.65299987792963 L -86.64399719238281 -246.24699401855463 L -86.91799926757812 -245.73599243164057 M -72.6449966430664 -256.90600585937494 L -72.73899841308594 -256.33999633789057 L -72.6449966430664 -255.77400207519526 L -72.37100219726562 -255.2630004882812 L -71.94400024414062 -254.85800170898432 L -71.40699768066406 -254.59800720214838 L -70.81099700927734 -254.5079956054687 L -70.21499633789062 -254.59800720214838 L -69.677001953125 -254.85800170898432 L -69.63200378417969 -254.90068054199213 L -69.25 -255.2630004882812 L -68.97599792480469 -255.77400207519526 L -68.88200378417969 -256.33999633789057 L -68.97599792480469 -256.90600585937494 L -69.25 -257.41699218749994 L -69.63200378417969 -257.7802124023437 L -69.677001953125 -257.82299804687494 L -70.142578125 -258.04800415039057 L -70.21499633789062 -258.08300781249994 L -70.81099700927734 -258.17300415039057 L -71.40699768066406 -258.08300781249994 L -71.47928619384766 -258.04800415039057 L -71.94400024414062 -257.82299804687494 L -72.37100219726562 -257.41699218749994 L -72.6449966430664 -256.90600585937494 M -86.91799926757812 -153.7359924316406 L -87.01300048828125 -153.16999816894528 L -86.91799926757812 -152.60400390624997 L -86.64399719238281 -152.0930023193359 L -86.21800231933594 -151.68800354003903 L -86.01599884033203 -151.5899963378906 L -85.68000030517578 -151.42700195312497 L -85.08399963378906 -151.3379974365234 L -84.48799896240234 -151.42700195312497 L -83.94999694824219 -151.68800354003903 L -83.52400207519531 -152.0930023193359 L -83.25 -152.60400390624997 L -83.15499877929688 -153.16999816894528 L -83.25 -153.7359924316406 L -83.52400207519531 -154.24699401855466 L -83.94999694824219 -154.65299987792966 L -84.48799896240234 -154.9129943847656 L -85.08399963378906 -155.00300598144528 L -85.68000030517578 -154.9129943847656 L -86.01599884033203 -154.75062561035153 L -86.21800231933594 -154.65299987792966 L -86.64399719238281 -154.24699401855466 L -86.91799926757812 -153.7359924316406 M -86.91799926757812 -211.39599609374994 L -87.01300048828125 -210.83000183105463 L -86.91799926757812 -210.26400756835932 L -86.64399719238281 -209.75300598144526 L -86.21800231933594 -209.34700012207026 L -86.01599884033203 -209.24937438964838 L -85.68000030517578 -209.08700561523432 L -85.08399963378906 -208.99800109863276 L -84.48799896240234 -209.08700561523432 L -83.94999694824219 -209.34700012207026 L -83.52400207519531 -209.75300598144526 L -83.25 -210.26400756835932 L -83.15499877929688 -210.83000183105463 L -83.25 -211.39599609374994 L -83.52400207519531 -211.906997680664 L -83.94999694824219 -212.31199645996088 L -84.48799896240234 -212.57299804687494 L -85.08399963378906 -212.6620025634765 L -85.68000030517578 -212.57299804687494 L -86.01599884033203 -212.41000366210932 L -86.21800231933594 -212.31199645996088 L -86.64399719238281 -211.906997680664 L -86.91799926757812 -211.39599609374994 M -86.91799926757812 -188.39599609374997 L -87.01300048828125 -187.83000183105466 L -86.91799926757812 -187.26400756835935 L -86.64399719238281 -186.75300598144528 L -86.21800231933594 -186.34700012207028 L -86.01599884033203 -186.2493743896484 L -85.68000030517578 -186.08700561523435 L -85.08399963378906 -185.99800109863278 L -84.48799896240234 -186.08700561523435 L -83.94999694824219 -186.34700012207028 L -83.52400207519531 -186.75300598144528 L -83.25 -187.26400756835935 L -83.15499877929688 -187.83000183105466 L -83.25 -188.39599609374997 L -83.52400207519531 -188.90699768066403 L -83.94999694824219 -189.3119964599609 L -84.48799896240234 -189.57299804687497 L -85.08399963378906 -189.66200256347653 L -85.68000030517578 -189.57299804687497 L -86.01599884033203 -189.41000366210935 L -86.21800231933594 -189.3119964599609 L -86.64399719238281 -188.90699768066403 L -86.91799926757812 -188.39599609374997 M -86.91799926757812 -130.7359924316406 L -87.01300048828125 -130.16999816894528 L -86.91799926757812 -129.60400390624997 L -86.64399719238281 -129.0930023193359 L -86.21800231933594 -128.68800354003903 L -86.01599884033203 -128.5899963378906 L -85.68000030517578 -128.42700195312497 L -85.08399963378906 -128.3379974365234 L -84.48799896240234 -128.42700195312497 L -83.94999694824219 -128.68800354003903 L -83.52400207519531 -129.0930023193359 L -83.25 -129.60400390624997 L -83.15499877929688 -130.16999816894528 L -83.25 -130.7359924316406 L -83.52400207519531 -131.24699401855466 L -83.94999694824219 -131.65299987792966 L -84.48799896240234 -131.9129943847656 L -85.08399963378906 -132.00300598144528 L -85.68000030517578 -131.9129943847656 L -86.01599884033203 -131.75062561035153 L -86.21800231933594 -131.65299987792966 L -86.64399719238281 -131.24699401855466 L -86.91799926757812 -130.7359924316406 M -71.40699768066406 -139.5980072021484 L -70.81099700927734 -139.50799560546872 L -70.21499633789062 -139.5980072021484 L -69.677001953125 -139.85800170898435 L -69.63200378417969 -139.90068054199216 L -69.25 -140.26300048828122 L -68.97599792480469 -140.77400207519528 L -68.88200378417969 -141.3399963378906 L -68.97599792480469 -141.90600585937497 L -69.25 -142.41700744628903 L -69.63200378417969 -142.78021240234372 L -69.677001953125 -142.82299804687497 L -70.21499633789062 -143.0829925537109 L -70.81099700927734 -143.1730041503906 L -71.40699768066406 -143.0829925537109 L -71.94400024414062 -142.82299804687497 L -72.37100219726562 -142.41700744628903 L -72.6449966430664 -141.90600585937497 L -72.73899841308594 -141.3399963378906 L -72.7343521118164 -141.3119964599609 L -72.6449966430664 -140.77400207519528 L -72.37100219726562 -140.26300048828122 L -71.94400024414062 -139.85800170898435 L -71.40699768066406 -139.5980072021484 z" fill="none" stroke="rgb(255,0,0)" stroke-width="0.001mm" />
</svg>